/* XPM */
static char *product_logo___[] = {
/* columns rows colors chars-per-pixel */
"32 32 215 2",
"   c #000836",
".  c #01063D",
"X  c #000563",
"o  c #000C63",
"O  c #000E69",
"+  c #000B72",
"@  c #0D197B",
"#  c #101770",
"$  c #001184",
"%  c #00138B",
"&  c #000E9C",
"*  c #011593",
"=  c #0A1296",
"-  c #001996",
";  c #00149C",
":  c #00189A",
">  c #01299D",
",  c #0011A2",
"<  c #001CA4",
"1  c #0B1EA4",
"2  c #001EAF",
"3  c #002DA5",
"4  c #0025A9",
"5  c #012AAA",
"6  c #1F27A8",
"7  c #0631A4",
"8  c #0830A4",
"9  c #0031AA",
"0  c #0B37A9",
"q  c #0638AE",
"w  c #0D38AB",
"e  c #193BA3",
"r  c #0123B1",
"t  c #032DB6",
"y  c #0134B4",
"u  c #0438B7",
"i  c #0C3CB4",
"p  c #0633B9",
"a  c #0836B9",
"s  c #0439BB",
"d  c #0A3CBB",
"f  c #202BA7",
"g  c #252CAC",
"h  c #2330A0",
"j  c #2C35A3",
"k  c #2232AE",
"l  c #3138AF",
"z  c #0E41BF",
"x  c #1E4BB7",
"c  c #1445BC",
"v  c #1B49BC",
"b  c #2246A8",
"n  c #2349AA",
"m  c #3746AB",
"M  c #394AAD",
"N  c #3254AD",
"B  c #395AAD",
"V  c #254FB8",
"C  c #3941B2",
"Z  c #2852B6",
"A  c #2451BB",
"S  c #2A55BE",
"D  c #2F5ABF",
"F  c #3B5EB7",
"G  c #3158BA",
"H  c #3F60B2",
"J  c #405BB2",
"K  c #475EBC",
"L  c #4865AF",
"P  c #4F69B2",
"I  c #4368BE",
"U  c #5F66B2",
"Y  c #506FBA",
"T  c #5671B4",
"R  c #5A74BB",
"E  c #5F7BBE",
"W  c #6169BB",
"Q  c #093EC0",
"!  c #0F43C4",
"~  c #1345C4",
"^  c #1748C0",
"/  c #1C4BC4",
"(  c #1649C9",
")  c #1C4DCC",
"_  c #204FC0",
"`  c #204FCA",
"'  c #2452C5",
"]  c #2956C5",
"[  c #2C59C4",
"{  c #2352CE",
"}  c #2C5ACC",
"|  c #335EC3",
" . c #325EC9",
".. c #2555D1",
"X. c #2857D1",
"o. c #2C5AD2",
"O. c #325FD3",
"+. c #3760C2",
"@. c #3C64C5",
"#. c #3661CC",
"$. c #3D66CB",
"%. c #3F68CB",
"&. c #3561D4",
"*. c #3A66D4",
"=. c #3E69D5",
"-. c #4166C4",
";. c #456BC6",
":. c #446BCC",
">. c #486FCD",
",. c #4C72CD",
"<. c #5276CC",
"1. c #5779CD",
"2. c #5C7DCB",
"3. c #436DD6",
"4. c #4770D6",
"5. c #4A72D4",
"6. c #5176D2",
"7. c #5A7DD4",
"8. c #5379D8",
"9. c #607EC9",
"0. c #697CC8",
"q. c #607FD0",
"w. c #6B83BC",
"e. c #778BBE",
"r. c #798DBE",
"t. c #5F80D0",
"y. c #6C85C3",
"u. c #6483CD",
"i. c #6A87CB",
"p. c #6C89CE",
"a. c #7484C1",
"s. c #738BC2",
"d. c #7C8CC0",
"f. c #7D91C2",
"g. c #7C94CD",
"h. c #6887D1",
"j. c #6D8AD4",
"k. c #6D8CDB",
"l. c #738FD2",
"z. c #718FD8",
"x. c #7C96D5",
"c. c #7E98D4",
"v. c #7793DB",
"b. c #8087C6",
"n. c #868DC5",
"m. c #8295C2",
"M. c #8B9CC4",
"N. c #8D93CA",
"B. c #859ACA",
"V. c #8B9ECC",
"C. c #859DD6",
"Z. c #899FD1",
"A. c #829CDE",
"S. c #8FA0C9",
"D. c #94A2C6",
"F. c #9AA5C7",
"G. c #9BA2CA",
"H. c #9CA9CA",
"J. c #8DA2D4",
"K. c #8DA4DB",
"L. c #91A5D4",
"P. c #95A8D7",
"I. c #9CACD3",
"U. c #90A6D9",
"Y. c #95AADB",
"T. c #99ADDB",
"R. c #9EB1DE",
"E. c #A0A6CF",
"W. c #A3ACCE",
"Q. c #A1ADD2",
"!. c #A4B2D3",
"~. c #ADB8D4",
"^. c #A4B5DE",
"/. c #A9B7D8",
"(. c #ACBADD",
"). c #A0B3E4",
"_. c #A5B8E6",
"`. c #ABBBE4",
"'. c #B0BFE2",
"]. c #BBC2D6",
"[. c #B9C3DC",
"{. c #B9C6E3",
"}. c #BFC8E1",
"|. c #C5CAD7",
" X c #C4CBDC",
".X c #C9CEDB",
"XX c #CBD1DE",
"oX c #D2D6DE",
"OX c #C3CCE3",
"+X c #CED3E1",
"@X c #C6D1EA",
"#X c #C9D3EC",
"$X c #D3D7E3",
"%X c #D6DAE2",
"&X c #DADDE4",
"*X c #D4DAEB",
"=X c #D9DEEA",
"-X c #D3DCF1",
";X c #D8DFF3",
":X c #DEE1E7",
">X c #DFE2E8",
",X c #DBE2F2",
"<X c #E1E3E6",
"1X c #E3E5EB",
"2X c #E7E8EC",
"3X c #E9EBEF",
"4X c #E6EAF3",
"5X c #EBEDF1",
"6X c #EFF0F3",
"7X c #EFF2F9",
"8X c #F2F3F5",
"9X c #F3F5F9",
"0X c #F7F8F9",
"qX c #FEFEFE",
"wX c None",
/* pixels */
"wXwXwXwXwXwXwXwXwXwXwXwXr.m.S.D.D.M.f.w.wXwXwXwXwXwXwXwXwXwXwXwX",
"wXwXwXwXwXwXwXwXwXE y.f.S.!.~.[. X+XXX].H.e.wXwXwXwXwXwXwXwXwXwX",
"wXwXwXwXwXwXwXwXR i.g.Z.L.T.^.^.^.(.{.:X2X+XW.w.wXwXwXwXwXwXwXwX",
"wXwXwXwXwXwXH R s.B.V.J.K.T.^.^._.R.Y.Y.}.4X1X.Xm.B wXwXwXwXwXwX",
"wXwXwXwXwXL M.].oX<X1X:XOX^.T.R.R.Y.K.C.x.(.4X3X%XS.B wXwXwXwXwX",
"wXwXwXwXB F.&X3X8X9X0X0XqX7X{.U.U.K.J.x.l.i.R.3X4X:XB.n wXwXwXwX",
"wXwXwXwXm.%X2X6X9X0X0XqXqXqX0X@XJ.x.x.l.i.u.t.[.8X3X*Xw.wXwXwXwX",
"wXwXwXT .X1X1X4X9XqXqXqXqXqXqXqX@Xx.h.h.t.t.<.2.@X6X2X[.L wXwXwX",
"wXwXb H.[.J.i.p.J.{.9XqXqXqXqXqXqX#Xl.u.2.1.,.;.p.>X6X:XV.wXwXwX",
"wXwXP m.@.H @.;.,.t.x.@XqXqXqXqXqXqX#Xj.<.<.,.;.+.K.4X2X XB wXwX",
"wXwXN Z S | @.%.,.,.6.t.T.4XqXqXqXqXqX-Xj.>.:.%.+.G R.3X&Xa.wXwX",
"wX- w x S | @.%.:.5.5.6.6.k.@XqXqXqXqXqX,Xj.%.#.#.] [ J.OXR wXwX",
"wX* 0 x A [  .$.=.4.5.5.5.5.t.).9XqXqXqXqX4Xv.#.[ ] x x V 8 % wX",
"wX* 7 c v [  .#.*.%.=.4.4.5.4.5.v.-XqXqXqXqX7XK.#.' / c i > % wX",
"wX- 3 z _ ' } O.*.*.=.=.=.4.4.=.3.8._.9XqXqXqX0X`.$.^ z q > * wX",
"wX: 3 y z ' X.O.&.&.*.=.=.=.=.=.=.*.=.k.@XqXqXqXqX*Xi.c 5 > * wX",
"wX: 5 y d ~ { o.O.O.*.O.*.3.*.*.*.*.&.&.3.A.-X0X0X0X5X/.Y e = wX",
"wX, 5 y s Q ~ { X.O.O.O.O.O.O.*.&.&.&.O.O.o.3.A.#X6X6X2X%XG.h wX",
"wX, 4 y s Q Q ( ) ..X.O.O.O.O.O.&.&.O.o.o...` ( ` <.P. XoXG.wXwX",
"wXwX< i G [ ~ ~ ( ) ......o.o.o.X.X.X.....{ ( ( ~ Q d v F M wXwX",
"wXwX1 d..X.XQ.2.} ( { { ........X.X...{ ` ` ( ( ~ Q s y 4 , wXwX",
"wXwXf W.oX&X1X<X}.x.:.......o.o.X.o.....` ) / ~ z d u 5 < wXwXwX",
"wXwXwXW .XoX&X:X3X3X*X^.j.:. .X.X.......` / ~ Q d u y 5 , wXwXwX",
"wXwXwXwXn.oXoX&X:X1X3X5X3X*X`.C.q.4. .[ ' ` A v A H R m wXwXwXwX",
"wXwXwXwXl E.oXoX%X&X2X2X3X3X5X3X2X&XOX[.~.!.!.~.].|.n.g wXwXwXwX",
"wXwXwXwXwXC Q.%X%X XS.P.[.%X<X1X2X2X2X2X<X<X&XoX'.d.g wXwXwXwXwX",
"wXwXwXwXwXwXj N.%XV.c v ' -.9.x.L.I.Q.Q.H.V.y.K g = wXwXwXwXwXwX",
"wXwXwXwXwXwXwX# U 0.a d c c c v c v v c i t 2 & X wXwXwXwXwXwXwX",
"wXwXwXwXwXwXwXwX. @ < r t p d d d a p t 2 ; +   wXwXwXwXwXwXwXwX",
"wXwXwXwXwXwXwXwXwXwXwXO % ; < < < < * $ o wXwXwXwXwXwXwXwXwXwXwX",
"wXwXwXwXwXwXwXwXwXwXwXwXwXwXwXwXwXwXwXwXwXwXwXwXwXwXwXwXwXwXwXwX",
"wXwXwXwXwXwXwXwXwXwXwXwXwXwXwXwXwXwXwXwXwXwXwXwXwXwXwXwXwXwXwXwX"
};
